<svg width="145" height="20" viewBox="0 0 145 20" fill="none" xmlns="http://www.w3.org/2000/svg">
<path d="M0.3 19V0.0749993H3.175V19H0.3ZM13.2707 19.35C12.0207 19.35 10.929 19.1 9.9957 18.6C9.06237 18.1 8.32904 17.2917 7.7957 16.175C7.27904 15.0583 7.0207 13.5583 7.0207 11.675C7.0207 9.725 7.2957 8.2 7.8457 7.1C8.3957 5.98333 9.13737 5.19167 10.0707 4.725C11.004 4.25833 12.054 4.025 13.2207 4.025C14.404 4.025 15.404 4.25 16.2207 4.7C17.054 5.13333 17.6874 5.85833 18.1207 6.875C18.554 7.89167 18.7707 9.25 18.7707 10.95V12.75H9.9957C9.97904 13.9167 10.0707 14.775 10.2707 15.325C10.4874 15.8583 10.7124 16.225 10.9457 16.425C11.1457 16.6083 11.3957 16.75 11.6957 16.85C11.9957 16.9333 12.3707 16.975 12.8207 16.975C13.454 16.975 14.104 16.9083 14.7707 16.775C15.4374 16.625 16.0374 16.475 16.5707 16.325C17.104 16.1583 17.479 16.0417 17.6957 15.975L18.4207 18.15C18.254 18.2333 17.9207 18.375 17.4207 18.575C16.9374 18.7583 16.3374 18.9333 15.6207 19.1C14.904 19.2667 14.1207 19.35 13.2707 19.35ZM10.7457 7.225C10.279 7.80833 10.029 8.925 9.9957 10.575L15.8207 10.45C15.804 9.63333 15.7624 8.94167 15.6957 8.375C15.629 7.79167 15.4957 7.35 15.2957 7.05C15.179 6.88333 14.9874 6.73333 14.7207 6.6C14.4707 6.46667 13.9957 6.4 13.2957 6.4C12.5457 6.4 11.979 6.48333 11.5957 6.65C11.229 6.8 10.9457 6.99167 10.7457 7.225ZM25.5924 19.325C24.409 19.325 23.434 18.9167 22.6674 18.1C21.9007 17.2833 21.5174 16.125 21.5174 14.625C21.5174 13.425 21.7674 12.4833 22.2674 11.8C22.784 11.1167 23.5007 10.6333 24.4174 10.35C25.3507 10.05 26.4424 9.9 27.6924 9.9H29.9924C29.9924 9.11667 29.959 8.49167 29.8924 8.025C29.8424 7.54167 29.7424 7.18333 29.5924 6.95C29.4591 6.76667 29.2674 6.64167 29.0174 6.575C28.784 6.49167 28.4424 6.45 27.9924 6.45C27.3757 6.45 26.7507 6.50833 26.1174 6.625C25.484 6.725 24.9007 6.85 24.3674 7C23.8507 7.15 23.4257 7.28333 23.0924 7.4C22.7757 7.51667 22.6174 7.575 22.6174 7.575L21.8674 5.425C21.8674 5.425 22.0257 5.35833 22.3424 5.225C22.6757 5.09167 23.1174 4.93333 23.6674 4.75C24.234 4.56667 24.8674 4.40833 25.5674 4.275C26.284 4.125 27.0257 4.05 27.7924 4.05C29.0424 4.05 30.034 4.275 30.7674 4.725C31.5174 5.175 32.0507 5.80833 32.3674 6.625C32.7007 7.425 32.8674 8.36667 32.8674 9.45V19H31.0174L30.6424 17.425H30.4924C30.3924 17.4917 30.1924 17.625 29.8924 17.825C29.5924 18.025 29.2174 18.2417 28.7674 18.475C28.334 18.7083 27.8424 18.9083 27.2924 19.075C26.7424 19.2417 26.1757 19.325 25.5924 19.325ZM26.2924 16.9C26.8257 16.9 27.3507 16.8167 27.8674 16.65C28.4007 16.4833 28.8507 16.3083 29.2174 16.125C29.6007 15.925 29.859 15.7833 29.9924 15.7V12.25C29.8757 12.2333 29.609 12.2083 29.1924 12.175C28.7757 12.125 28.2257 12.1 27.5424 12.1C26.209 12.1 25.3757 12.2417 25.0424 12.525C24.6757 12.8417 24.4924 13.5167 24.4924 14.55C24.4924 15.3833 24.6257 15.9833 24.8924 16.35C25.1757 16.7167 25.6424 16.9 26.2924 16.9ZM37.2867 19V4.375H39.0867L39.4867 5.9H39.6367C39.6367 5.9 39.7617 5.80833 40.0117 5.625C40.2617 5.425 40.5867 5.20833 40.9867 4.975C41.4034 4.725 41.8451 4.50833 42.3117 4.325C42.7784 4.14167 43.2284 4.05 43.6617 4.05C44.0617 4.05 44.3784 4.08333 44.6117 4.15C44.8451 4.21667 44.9617 4.25 44.9617 4.25L44.7367 6.85C44.7367 6.85 44.6034 6.84167 44.3367 6.825C44.0867 6.80833 43.8451 6.8 43.6117 6.8C42.9284 6.8 42.2701 6.925 41.6367 7.175C41.0201 7.40833 40.5367 7.65 40.1867 7.9V19H37.2867ZM47.565 19V4.375H49.44L49.79 5.825H49.915C50.2317 5.64167 50.6567 5.41667 51.19 5.15C51.74 4.86667 52.3567 4.61667 53.04 4.4C53.74 4.16667 54.4567 4.05 55.19 4.05C56.1567 4.05 56.89 4.28333 57.39 4.75C57.9067 5.21667 58.2567 5.85 58.44 6.65C58.6234 7.45 58.715 8.35 58.715 9.35V19H55.815V10.075C55.815 9.225 55.7984 8.58333 55.765 8.15C55.7317 7.7 55.6317 7.35833 55.465 7.125C55.3484 6.94167 55.1817 6.81667 54.965 6.75C54.765 6.68333 54.5317 6.65 54.265 6.65C53.7817 6.65 53.2817 6.725 52.765 6.875C52.2484 7.025 51.7817 7.2 51.365 7.4C50.9484 7.58333 50.6484 7.74167 50.465 7.875V19H47.565ZM65.3459 19L65.3959 3.975L60.5209 4.05V1.525H73.1459V4.05L68.1959 3.975L68.2709 19H65.3459ZM79.4729 19.325C77.9729 19.325 76.7895 19.0167 75.9229 18.4C75.0729 17.7833 74.4645 16.9083 74.0979 15.775C73.7312 14.625 73.5479 13.2667 73.5479 11.7C73.5479 10.1333 73.7312 8.78333 74.0979 7.65C74.4645 6.5 75.0729 5.61667 75.9229 5C76.7895 4.36667 77.9729 4.05 79.4729 4.05C80.9562 4.05 82.1229 4.36667 82.9729 5C83.8395 5.61667 84.4479 6.5 84.7979 7.65C85.1645 8.78333 85.3479 10.1333 85.3479 11.7C85.3479 13.2667 85.1645 14.625 84.7979 15.775C84.4479 16.9083 83.8395 17.7833 82.9729 18.4C82.1229 19.0167 80.9562 19.325 79.4729 19.325ZM79.4729 17C80.2229 17 80.8062 16.8667 81.2229 16.6C81.6562 16.3333 81.9562 15.8167 82.1229 15.05C82.3062 14.2833 82.3979 13.1667 82.3979 11.7C82.3979 10.2167 82.3062 9.09167 82.1229 8.325C81.9562 7.55833 81.6562 7.04167 81.2229 6.775C80.7895 6.50833 80.2062 6.375 79.4729 6.375C78.7062 6.375 78.1062 6.50833 77.6729 6.775C77.2395 7.04167 76.9312 7.55833 76.7479 8.325C76.5645 9.09167 76.4729 10.2167 76.4729 11.7C76.4729 13.1667 76.5645 14.2833 76.7479 15.05C76.9312 15.8167 77.2395 16.3333 77.6729 16.6C78.1062 16.8667 78.7062 17 79.4729 17ZM94.9428 19.35C93.6594 19.35 92.5261 19.0583 91.5428 18.475C90.5594 17.8917 89.7844 16.95 89.2178 15.65C88.6678 14.3333 88.3928 12.6 88.3928 10.45C88.3928 8.53333 88.5678 6.975 88.9178 5.775C89.2678 4.55833 89.7511 3.61667 90.3678 2.95C91.0011 2.28333 91.7344 1.825 92.5678 1.575C93.4178 1.325 94.3344 1.2 95.3178 1.2C95.7178 1.2 96.2094 1.225 96.7928 1.275C97.3928 1.325 97.9761 1.39167 98.5428 1.475C99.1261 1.54167 99.5844 1.61667 99.9178 1.7L99.5928 4.125C99.4261 4.10833 99.1511 4.08333 98.7678 4.05C98.4011 4 98.0011 3.95833 97.5678 3.925C97.1344 3.89167 96.7261 3.86667 96.3428 3.85C95.9594 3.81667 95.6594 3.8 95.4428 3.8C94.6928 3.8 94.0928 3.84167 93.6428 3.925C93.1928 4.00833 92.8678 4.15833 92.6678 4.375C92.4344 4.59167 92.2261 4.93333 92.0428 5.4C91.8594 5.86667 91.7094 6.51667 91.5928 7.35C91.4928 8.16667 91.4428 9.225 91.4428 10.525C91.4428 12.1583 91.5928 13.4583 91.8928 14.425C92.2094 15.375 92.5261 15.9917 92.8428 16.275C93.2428 16.6417 93.8678 16.825 94.7178 16.825C95.3178 16.825 95.9094 16.7583 96.4928 16.625C97.0761 16.475 97.6094 16.3167 98.0928 16.15C98.5928 15.9667 98.9844 15.8083 99.2678 15.675C99.5678 15.5417 99.7178 15.475 99.7178 15.475L100.643 17.725C100.643 17.725 100.501 17.8083 100.218 17.975C99.9344 18.125 99.5428 18.3083 99.0428 18.525C98.5428 18.7417 97.9428 18.9333 97.2428 19.1C96.5428 19.2667 95.7761 19.35 94.9428 19.35ZM109.014 19.325C107.514 19.325 106.331 19.0167 105.464 18.4C104.614 17.7833 104.006 16.9083 103.639 15.775C103.272 14.625 103.089 13.2667 103.089 11.7C103.089 10.1333 103.272 8.78333 103.639 7.65C104.006 6.5 104.614 5.61667 105.464 5C106.331 4.36667 107.514 4.05 109.014 4.05C110.497 4.05 111.664 4.36667 112.514 5C113.381 5.61667 113.989 6.5 114.339 7.65C114.706 8.78333 114.889 10.1333 114.889 11.7C114.889 13.2667 114.706 14.625 114.339 15.775C113.989 16.9083 113.381 17.7833 112.514 18.4C111.664 19.0167 110.497 19.325 109.014 19.325ZM109.014 17C109.764 17 110.347 16.8667 110.764 16.6C111.197 16.3333 111.497 15.8167 111.664 15.05C111.847 14.2833 111.939 13.1667 111.939 11.7C111.939 10.2167 111.847 9.09167 111.664 8.325C111.497 7.55833 111.197 7.04167 110.764 6.775C110.331 6.50833 109.747 6.375 109.014 6.375C108.247 6.375 107.647 6.50833 107.214 6.775C106.781 7.04167 106.472 7.55833 106.289 8.325C106.106 9.09167 106.014 10.2167 106.014 11.7C106.014 13.1667 106.106 14.2833 106.289 15.05C106.472 15.8167 106.781 16.3333 107.214 16.6C107.647 16.8667 108.247 17 109.014 17ZM122.709 19.325C121.775 19.325 120.942 19.0667 120.209 18.55C119.492 18.0167 118.925 17.2083 118.509 16.125C118.092 15.025 117.884 13.6083 117.884 11.875C117.884 10.275 118.042 8.96667 118.359 7.95C118.692 6.93333 119.125 6.14167 119.659 5.575C120.192 5.00833 120.784 4.61667 121.434 4.4C122.084 4.16667 122.742 4.05 123.409 4.05C124.159 4.05 124.817 4.11667 125.384 4.25C125.967 4.38333 126.334 4.48333 126.484 4.55V0.0749993H129.359V19H127.484L127.159 17.525H127.009C126.742 17.725 126.4 17.9667 125.984 18.25C125.567 18.5333 125.084 18.7833 124.534 19C123.984 19.2167 123.375 19.325 122.709 19.325ZM123.084 16.9C123.484 16.9 123.917 16.825 124.384 16.675C124.867 16.5083 125.3 16.3333 125.684 16.15C126.084 15.9667 126.35 15.8333 126.484 15.75V7.1C126.367 7.05 126.15 6.98333 125.834 6.9C125.517 6.8 125.134 6.70833 124.684 6.625C124.25 6.54167 123.8 6.5 123.334 6.5C122.517 6.5 121.967 6.675 121.684 7.025C121.55 7.175 121.417 7.43333 121.284 7.8C121.167 8.15 121.067 8.66667 120.984 9.35C120.9 10.0167 120.859 10.8917 120.859 11.975C120.859 13.2083 120.917 14.1417 121.034 14.775C121.15 15.4083 121.275 15.85 121.409 16.1C121.559 16.35 121.684 16.5167 121.784 16.6C121.917 16.7 122.1 16.775 122.334 16.825C122.567 16.875 122.817 16.9 123.084 16.9ZM139.223 19.35C137.973 19.35 136.881 19.1 135.948 18.6C135.015 18.1 134.281 17.2917 133.748 16.175C133.231 15.0583 132.973 13.5583 132.973 11.675C132.973 9.725 133.248 8.2 133.798 7.1C134.348 5.98333 135.09 5.19167 136.023 4.725C136.956 4.25833 138.006 4.025 139.173 4.025C140.356 4.025 141.356 4.25 142.173 4.7C143.006 5.13333 143.64 5.85833 144.073 6.875C144.506 7.89167 144.723 9.25 144.723 10.95V12.75H135.948C135.931 13.9167 136.023 14.775 136.223 15.325C136.44 15.8583 136.665 16.225 136.898 16.425C137.098 16.6083 137.348 16.75 137.648 16.85C137.948 16.9333 138.323 16.975 138.773 16.975C139.406 16.975 140.056 16.9083 140.723 16.775C141.39 16.625 141.99 16.475 142.523 16.325C143.056 16.1583 143.431 16.0417 143.648 15.975L144.373 18.15C144.206 18.2333 143.873 18.375 143.373 18.575C142.89 18.7583 142.29 18.9333 141.573 19.1C140.856 19.2667 140.073 19.35 139.223 19.35ZM136.698 7.225C136.231 7.80833 135.981 8.925 135.948 10.575L141.773 10.45C141.756 9.63333 141.715 8.94167 141.648 8.375C141.581 7.79167 141.448 7.35 141.248 7.05C141.131 6.88333 140.94 6.73333 140.673 6.6C140.423 6.46667 139.948 6.4 139.248 6.4C138.498 6.4 137.931 6.48333 137.548 6.65C137.181 6.8 136.898 6.99167 136.698 7.225Z" fill="#E1E1E6"/>
</svg>
